<svg width="20" height="19" viewBox="0 0 20 19" fill="none" xmlns="http://www.w3.org/2000/svg">
<path d="M19.5614 8.08065H16.3901V5.26278C16.3901 5.04778 16.1938 4.87292 15.9523 4.87292H15.0493C14.8062 4.87292 14.6099 5.04778 14.6099 5.26278V8.08065H11.4386C11.1971 8.08065 11 8.25588 11 8.47126V9.27384C11 9.48922 11.1971 9.66369 11.4386 9.66369H14.6099V12.4831C14.6099 12.6984 14.8062 12.8729 15.0493 12.8729H15.9523C16.1938 12.8729 16.3901 12.6984 16.3901 12.4831V9.66332H19.5614C19.8029 9.66332 20 9.48884 20 9.27347V8.47088C20 8.25551 19.8029 8.08065 19.5614 8.08065Z" fill="black"/>
<path fill-rule="evenodd" clip-rule="evenodd" d="M8.73118 10.8306C8.14507 10.3805 7.61238 9.72048 7.6031 9.51777C7.6031 9.14853 7.63352 8.97196 8.39732 8.3268C9.3848 7.48858 9.92862 6.38651 9.92862 5.22209C9.92862 4.16628 9.63112 3.22831 9.12476 2.56947H9.51761C9.59885 2.56947 9.6786 2.54212 9.74352 2.49064L10.8397 1.62949C10.9758 1.52371 11.033 1.33507 10.981 1.16252C10.9287 0.990372 10.7818 0.872925 10.6145 0.872925H5.71197C5.17557 0.872925 4.63064 0.97549 4.09572 1.17499C2.3092 1.84307 1.05982 3.49377 1.05982 5.18831C1.05982 7.58914 2.77512 9.40877 5.06799 9.46588C5.02311 9.65613 5.00048 9.84356 5.00048 10.0274C5.00048 10.3974 5.08691 10.7477 5.26497 11.0864H5.20191C3.01624 11.0864 1.0435 12.2492 0.294539 13.9796C0.0994161 14.4296 0 14.8845 0 15.3338C0 15.7706 0.103497 16.1909 0.306409 16.5859C0.777152 17.499 1.78801 18.2073 3.15423 18.5813C3.85942 18.7744 4.61728 18.8729 5.40408 18.8729C6.11112 18.8729 6.78515 18.774 7.40835 18.5785C9.35142 17.9667 10.6078 16.4158 10.6078 14.6255C10.6075 12.9076 10.0982 11.8792 8.73118 10.8306ZM2.53956 14.7631C2.53956 13.5134 4.00372 12.4173 5.67265 12.4173H5.71754C6.0807 12.4222 6.43497 12.4801 6.76883 12.5911C6.87568 12.671 6.97899 12.7473 7.07845 12.8209L7.07846 12.8209L7.10009 12.8369L7.10244 12.8386C7.8742 13.4088 8.38411 13.7855 8.52604 14.3898C8.55943 14.5423 8.57612 14.6947 8.57612 14.8423C8.57612 16.3985 7.50591 17.1872 5.39406 17.1872C3.79339 17.1872 2.53956 16.123 2.53956 14.7631ZM5.04425 2.46168C4.66069 2.46168 4.31904 2.63222 4.05825 2.9552C3.65465 3.45435 3.48401 4.24471 3.59048 5.12395C3.78004 6.69662 4.83911 8.05571 5.90042 8.09111H5.91785H5.9186C6.31774 8.09111 6.65457 7.92057 6.91609 7.59678C7.32489 7.0916 7.50591 6.26263 7.39871 5.38097C7.20804 3.80629 6.17122 2.49708 5.08766 2.46249L5.04425 2.46168Z" fill="black"/>
</svg>
