<svg width="16" height="15" viewBox="0 0 16 15" fill="none" xmlns="http://www.w3.org/2000/svg">
<g clip-path="url(#clip0_23691_2932)">
<path fill-rule="evenodd" clip-rule="evenodd" d="M3.62186 7.50011C3.62186 7.01296 3.70271 6.54585 3.84721 6.10781L1.31947 4.17761C0.826816 5.17781 0.549316 6.30492 0.549316 7.50011C0.549316 8.69437 0.826582 9.82066 1.31842 10.8203L3.84475 8.88632C3.70166 8.45027 3.62186 7.98492 3.62186 7.50011Z" fill="black"/>
<path fill-rule="evenodd" clip-rule="evenodd" d="M8.05984 3.0682C9.11816 3.0682 10.0741 3.4432 10.8251 4.0568L13.01 1.875C11.6786 0.715898 9.97164 0 8.05984 0C5.09172 0 2.54078 1.69734 1.31934 4.1775L3.84695 6.1077C4.42938 4.3398 6.08957 3.0682 8.05984 3.0682Z" fill="black"/>
<path fill-rule="evenodd" clip-rule="evenodd" d="M8.05984 11.9319C6.08969 11.9319 4.42949 10.6603 3.84707 8.89246L1.31934 10.8223C2.54078 13.3028 5.09172 15.0002 8.05984 15.0002C9.89172 15.0002 11.6407 14.3496 12.9534 13.1309L10.5541 11.2761C9.87707 11.7025 9.02453 11.9319 8.05984 11.9319Z" fill="black"/>
<path fill-rule="evenodd" clip-rule="evenodd" d="M15.2292 7.49982C15.2292 7.05662 15.1609 6.57932 15.0585 6.13623H8.06006V9.03393H12.0885C11.8871 10.0219 11.3388 10.7814 10.5543 11.2757L12.9536 13.1306C14.3324 11.8509 15.2292 9.94447 15.2292 7.49982Z" fill="black"/>
</g>
<defs>
<clipPath id="clip0_23691_2932">
<rect width="15" height="15" fill="white" transform="translate(0.38916)"/>
</clipPath>
</defs>
</svg>
