<svg width="17" height="15" viewBox="0 0 17 15" fill="none" xmlns="http://www.w3.org/2000/svg">
<path d="M4.44339 13.7217V7.02163C4.44339 6.93838 4.46438 6.85687 4.50638 6.78429L4.64387 6.54297H1.10243C0.838861 6.54297 0.625 6.75746 0.625 7.02163V13.7217C0.625 13.9858 0.838828 14.2002 1.10243 14.2002H4.92055C4.65722 14.2002 4.44339 13.9858 4.44339 13.7217Z" fill="black"/>
<path d="M14.4657 5.58575H10.6474V2.71424C10.6474 1.65845 9.79115 0.800049 8.73838 0.800049H7.30623C7.04293 0.800049 6.82917 1.01441 6.82917 1.27844V3.54412L5.12044 6.54286L4.98291 6.78418C4.94091 6.85676 4.91992 6.93831 4.91992 7.02152V13.7216C4.91992 13.9857 5.13375 14.2001 5.39712 14.2001H5.87458H13.0577C13.8119 14.2001 14.4972 13.7532 14.8018 13.0631L16.3328 9.60864C16.3606 9.54751 16.375 9.48134 16.375 9.41443V7.50011C16.375 6.44422 15.5186 5.58575 14.4657 5.58575Z" fill="black"/>
</svg>
