<svg width="116" height="23" viewBox="0 0 116 23" fill="none" xmlns="http://www.w3.org/2000/svg">
<path d="M10.1289 12.7354C10.1289 14.1318 9.62402 15.2275 8.61426 16.0225C7.60449 16.8174 6.21159 17.2148 4.43555 17.2148C2.65951 17.2148 1.20573 16.9391 0.0742188 16.3877V13.96C0.790365 14.2965 1.54948 14.5615 2.35156 14.7549C3.16081 14.9482 3.91276 15.0449 4.60742 15.0449C5.62435 15.0449 6.37272 14.8516 6.85254 14.4648C7.33952 14.0781 7.58301 13.5589 7.58301 12.9072C7.58301 12.32 7.361 11.8223 6.91699 11.4141C6.47298 11.0059 5.55632 10.5225 4.16699 9.96387C2.7347 9.38379 1.72493 8.72135 1.1377 7.97656C0.550456 7.23177 0.256836 6.33659 0.256836 5.29102C0.256836 3.98047 0.722331 2.94922 1.65332 2.19727C2.58431 1.44531 3.83398 1.06934 5.40234 1.06934C6.90625 1.06934 8.40299 1.39876 9.89258 2.05762L9.07617 4.15234C7.67969 3.5651 6.43359 3.27148 5.33789 3.27148C4.50716 3.27148 3.87695 3.4541 3.44727 3.81934C3.01758 4.17741 2.80273 4.65365 2.80273 5.24805C2.80273 5.65625 2.88867 6.00716 3.06055 6.30078C3.23242 6.58724 3.5153 6.85938 3.90918 7.11719C4.30306 7.375 5.01204 7.71517 6.03613 8.1377C7.18913 8.61751 8.03418 9.0651 8.57129 9.48047C9.1084 9.89583 9.50228 10.3649 9.75293 10.8877C10.0036 11.4105 10.1289 12.0264 10.1289 12.7354ZM18.9268 17.2148C17.4229 17.2148 16.2555 16.6742 15.4248 15.5928H15.2744C15.3747 16.5954 15.4248 17.2041 15.4248 17.4189V22.2852H12.9004V5.11914H14.9414C14.9987 5.34115 15.1169 5.87109 15.2959 6.70898H15.4248C16.2126 5.50586 17.3942 4.9043 18.9697 4.9043C20.4521 4.9043 21.6051 5.44141 22.4287 6.51562C23.2594 7.58984 23.6748 9.09733 23.6748 11.0381C23.6748 12.9788 23.2523 14.4935 22.4072 15.582C21.5693 16.6706 20.4092 17.2148 18.9268 17.2148ZM18.3145 6.9668C17.3118 6.9668 16.5778 7.26042 16.1123 7.84766C15.654 8.4349 15.4248 9.37305 15.4248 10.6621V11.0381C15.4248 12.4847 15.654 13.5339 16.1123 14.1855C16.5706 14.8301 17.319 15.1523 18.3574 15.1523C19.2311 15.1523 19.9043 14.7943 20.377 14.0781C20.8496 13.362 21.0859 12.3415 21.0859 11.0166C21.0859 9.68457 20.8496 8.67839 20.377 7.99805C19.9115 7.31055 19.224 6.9668 18.3145 6.9668ZM37.1455 11.0381C37.1455 12.9788 36.6478 14.4935 35.6523 15.582C34.6569 16.6706 33.2712 17.2148 31.4951 17.2148C30.3851 17.2148 29.404 16.9642 28.5518 16.4629C27.6995 15.9616 27.0443 15.2419 26.5859 14.3037C26.1276 13.3656 25.8984 12.277 25.8984 11.0381C25.8984 9.11165 26.3926 7.60775 27.3809 6.52637C28.3691 5.44499 29.762 4.9043 31.5596 4.9043C33.2783 4.9043 34.639 5.45931 35.6416 6.56934C36.6442 7.6722 37.1455 9.16178 37.1455 11.0381ZM28.498 11.0381C28.498 13.7809 29.5114 15.1523 31.5381 15.1523C33.5433 15.1523 34.5459 13.7809 34.5459 11.0381C34.5459 8.32389 33.5361 6.9668 31.5166 6.9668C30.4567 6.9668 29.6868 7.31771 29.207 8.01953C28.7344 8.72135 28.498 9.72754 28.498 11.0381ZM46.083 4.9043C46.5915 4.9043 47.0104 4.9401 47.3398 5.01172L47.0928 7.36426C46.7347 7.27832 46.3623 7.23535 45.9756 7.23535C44.9658 7.23535 44.1458 7.56478 43.5156 8.22363C42.8926 8.88249 42.5811 9.73828 42.5811 10.791V17H40.0566V5.11914H42.0332L42.3662 7.21387H42.4951C42.889 6.50488 43.401 5.94271 44.0312 5.52734C44.6686 5.11198 45.3525 4.9043 46.083 4.9043ZM53.9785 15.1738C54.5944 15.1738 55.2103 15.0771 55.8262 14.8838V16.7852C55.5469 16.9069 55.1852 17.0072 54.7412 17.0859C54.3044 17.1719 53.8496 17.2148 53.377 17.2148C50.985 17.2148 49.7891 15.9544 49.7891 13.4336V7.03125H48.167V5.91406L49.9072 4.99023L50.7666 2.47656H52.3242V5.11914H55.708V7.03125H52.3242V13.3906C52.3242 13.9993 52.4746 14.4505 52.7754 14.7441C53.0833 15.0306 53.4844 15.1738 53.9785 15.1738ZM66.1924 13.6162C66.1924 14.7764 65.7699 15.668 64.9248 16.291C64.0798 16.9069 62.8695 17.2148 61.2939 17.2148C59.7113 17.2148 58.4401 16.9749 57.4805 16.4951V14.3145C58.877 14.959 60.1768 15.2812 61.3799 15.2812C62.9339 15.2812 63.7109 14.8122 63.7109 13.874C63.7109 13.5732 63.625 13.3226 63.4531 13.1221C63.2812 12.9215 62.9984 12.7139 62.6045 12.499C62.2106 12.2842 61.6628 12.0407 60.9609 11.7686C59.5931 11.2386 58.6657 10.7087 58.1787 10.1787C57.6989 9.64876 57.459 8.96126 57.459 8.11621C57.459 7.09928 57.8672 6.31152 58.6836 5.75293C59.5072 5.18717 60.6243 4.9043 62.0352 4.9043C63.4316 4.9043 64.7529 5.18717 65.999 5.75293L65.1826 7.6543C63.9007 7.12435 62.8229 6.85938 61.9492 6.85938C60.6172 6.85938 59.9512 7.23893 59.9512 7.99805C59.9512 8.37044 60.123 8.68555 60.4668 8.94336C60.8177 9.20117 61.5768 9.55566 62.7441 10.0068C63.7253 10.3864 64.4378 10.7337 64.8818 11.0488C65.3258 11.3639 65.6553 11.7292 65.8701 12.1445C66.085 12.5527 66.1924 13.0433 66.1924 13.6162ZM87.3008 17H84.7227V9.9209H77.4824V17H74.915V1.29492H77.4824V7.71875H84.7227V1.29492H87.3008V17ZM99.5469 17L99.1924 15.4424H99.0635C98.7126 15.9938 98.2113 16.4271 97.5596 16.7422C96.915 17.0573 96.1774 17.2148 95.3467 17.2148C93.9072 17.2148 92.833 16.8568 92.124 16.1406C91.415 15.4245 91.0605 14.3395 91.0605 12.8857V5.11914H93.6064V12.4453C93.6064 13.3548 93.7926 14.0387 94.165 14.4971C94.5374 14.9482 95.1211 15.1738 95.916 15.1738C96.9759 15.1738 97.7529 14.8587 98.2471 14.2285C98.7484 13.5911 98.999 12.5277 98.999 11.0381V5.11914H101.534V17H99.5469ZM111.202 4.9043C112.685 4.9043 113.838 5.44141 114.661 6.51562C115.492 7.58984 115.907 9.09733 115.907 11.0381C115.907 12.986 115.488 14.5042 114.65 15.5928C113.812 16.6742 112.649 17.2148 111.159 17.2148C109.655 17.2148 108.488 16.6742 107.657 15.5928H107.485L107.023 17H105.133V0.285156H107.657V4.25977C107.657 4.55339 107.643 4.99023 107.614 5.57031C107.586 6.15039 107.564 6.51921 107.55 6.67676H107.657C108.459 5.49512 109.641 4.9043 111.202 4.9043ZM110.547 6.9668C109.53 6.9668 108.796 7.26758 108.345 7.86914C107.901 8.46354 107.672 9.46257 107.657 10.8662V11.0381C107.657 12.4847 107.886 13.5339 108.345 14.1855C108.803 14.8301 109.551 15.1523 110.59 15.1523C111.485 15.1523 112.162 14.7979 112.62 14.0889C113.086 13.3799 113.318 12.3558 113.318 11.0166C113.318 8.31673 112.395 6.9668 110.547 6.9668Z" fill="#FFFBFB"/>
</svg>
