<svg width="21" height="19" viewBox="0 0 21 19" fill="none" xmlns="http://www.w3.org/2000/svg">
<path d="M21 3.00366C20.228 3.36561 19.3972 3.60975 18.5254 3.71901C19.4155 3.15698 20.098 2.26674 20.4198 1.20474C19.5873 1.72585 18.6657 2.10398 17.6839 2.3081C16.8983 1.42506 15.7785 0.872925 14.5392 0.872925C12.1602 0.872925 10.2312 2.90745 10.2312 5.41721C10.2312 5.77286 10.2692 6.11952 10.3429 6.45268C6.76213 6.26294 3.58718 4.45413 1.46215 1.70472C1.09129 2.37555 0.878996 3.15608 0.878996 3.98968C0.878996 5.56604 1.63949 6.95715 2.79557 7.77186C2.08964 7.74803 1.42507 7.54345 0.844041 7.20309C0.843615 7.22198 0.843615 7.24131 0.843615 7.26065C0.843615 9.46197 2.32879 11.2982 4.29992 11.7164C3.93843 11.8198 3.55776 11.8755 3.16473 11.8755C2.88679 11.8755 2.61695 11.8472 2.35394 11.7937C2.90256 13.5989 4.49345 14.9131 6.37848 14.9496C4.90396 16.1685 3.04665 16.8951 1.02777 16.8951C0.680348 16.8951 0.33719 16.8735 0 16.8312C1.90719 18.1212 4.17161 18.8729 6.60441 18.8729C14.5294 18.8729 18.8626 11.9488 18.8626 5.94371C18.8626 5.74678 18.8588 5.5503 18.8507 5.35517C19.6922 4.71581 20.4228 3.91504 21 3.00366Z" fill="black"/>
</svg>
