<svg width="19" height="13" viewBox="0 0 19 13" fill="none" xmlns="http://www.w3.org/2000/svg">
<path fill-rule="evenodd" clip-rule="evenodd" d="M18.3647 1.74212C18.4439 1.82131 18.4439 1.9005 18.4439 1.97969C18.6023 2.77156 18.7607 4.4345 18.7607 6.335C18.7607 7.88744 18.6021 9.28136 18.5009 10.1715C18.4782 10.371 18.4584 10.5453 18.4439 10.6903C18.3647 10.7695 18.3647 10.8487 18.3647 10.9279V11.0071C18.1272 11.7197 17.4937 12.1949 16.7018 12.1949H16.8602C16.8602 12.1949 13.6927 12.67 9.57491 12.67C5.37797 12.67 2.28966 12.1949 2.28966 12.1949H2.44803C1.65616 12.1949 1.02266 11.7197 0.785098 11.0071V10.9279C0.70591 10.8487 0.70591 10.7695 0.70591 10.6903C0.691408 10.5453 0.671593 10.371 0.648899 10.1715C0.547676 9.28136 0.38916 7.88744 0.38916 6.335C0.38916 4.78256 0.547676 3.38863 0.648899 2.49852C0.671593 2.29895 0.691408 2.12471 0.70591 1.97969C0.785098 1.9005 0.785098 1.82131 0.785098 1.74212V1.66294C1.02266 0.95025 1.65616 0.475125 2.44803 0.475125H2.28966C2.28966 0.475125 5.45716 0 9.57491 0C13.7718 0 16.8602 0.475125 16.8602 0.475125H16.7018C17.4937 0.475125 18.1272 0.95025 18.3647 1.66294V1.74212ZM8.54688 9.42311L12.2687 6.73073C12.4271 6.65155 12.5063 6.49317 12.4271 6.3348C12.4271 6.17642 12.3479 6.01805 12.2687 5.93886L8.54688 3.24648C8.38851 3.1673 8.23013 3.1673 8.07176 3.24648C7.91338 3.32567 7.83419 3.48405 7.83419 3.64242V9.02717C7.83419 9.18554 7.91338 9.34392 8.07176 9.42311C8.15094 9.5023 8.23013 9.5023 8.30932 9.5023C8.38851 9.5023 8.46769 9.5023 8.54688 9.42311Z" fill="black"/>
</svg>
